<mxfile host="app.diagrams.net" modified="2021-03-04T15:36:54.957Z" agent="5.0 (Windows NT 10.0; Win64; x64) AppleWebKit/537.36 (KHTML, like Gecko) Chrome/88.0.4324.111 YaBrowser/21.2.1.107 Yowser/2.5 Safari/537.36" etag="lS5lOmOUV4dWjXwbLfMX" version="14.4.4" type="github">
  <diagram id="HOhehJmqwx16EDS-5vbF" name="Page-1">
    <mxGraphModel dx="1422" dy="789" grid="0" gridSize="10" guides="1" tooltips="1" connect="1" arrows="1" fold="1" page="1" pageScale="1" pageWidth="827" pageHeight="1169" background="none" math="0" shadow="1">
      <root>
        <mxCell id="0" />
        <mxCell id="1" parent="0" />
        <mxCell id="afVom9gIds0qpK5RLiJy-5" value="" style="shape=image;verticalLabelPosition=bottom;labelBackgroundColor=#ffffff;verticalAlign=top;aspect=fixed;imageAspect=0;image=data:image/png,iVBORw0KGgoAAAANSUhEUgAAAwUAAAHeCAYAAADKA6e8AAABP2lDQ1BJQ0MgUHJvZmlsZQAAKJFjYGASSCwoyGFhYGDIzSspCnJ3UoiIjFJgf8LAySDKwM2gwMCTmFxc4BgQ4ANUwgCjUcG3awyMIPqyLsis/fmpqoFFjGIOzBmJrOv+J2GqRwFcKanFyUD6DxAnJhcUlTAwMCYA2crlJQUgdguQLVIEdBSQPQPEToew14DYSRD2AbCakCBnIPsKkC2QnJGYAmQ/AbJ1kpDE05HYUHtBgN3XyNjUyIWAS8kAJakVJSDaOb+gsigzPaNEwREYQqkKnnnJejoKRgZGBgwMoPCGqP58AxyOjGIcCLGCmwwMVosYGJg3I8TiJRkYNs0BemEaQkwN6FehwwwM+x4XJBYlwh3A+I2lOM3YCMLm3s7AwDrt///P4UAvazIw/L3+///v7f///10GNP8WA8OBbwBqy1187COxRgAAAFZlWElmTU0AKgAAAAgAAYdpAAQAAAABAAAAGgAAAAAAA5KGAAcAAAASAAAARKACAAQAAAABAAADBaADAAQAAAABAAAB3gAAAABBU0NJSQAAAFNjcmVlbnNob3Q5H1QVAAAB1mlUWHRYTUw6Y29tLmFkb2JlLnhtcAAAAAAAPHg6eG1wbWV0YSB4bWxuczp4PSJhZG9iZTpuczptZXRhLyIgeDp4bXB0az0iWE1QIENvcmUgNS40LjAiPgogICA8cmRmOlJERiB4bWxuczpyZGY9Imh0dHA6Ly93d3cudzMub3JnLzE5OTkvMDIvMjItcmRmLXN5bnRheC1ucyMiPgogICAgICA8cmRmOkRlc2NyaXB0aW9uIHJkZjphYm91dD0iIgogICAgICAgICAgICB4bWxuczpleGlmPSJodHRwOi8vbnMuYWRvYmUuY29tL2V4aWYvMS4wLyI+CiAgICAgICAgIDxleGlmOlBpeGVsWERpbWVuc2lvbj43NzM8L2V4aWY6UGl4ZWxYRGltZW5zaW9uPgogICAgICAgICA8ZXhpZjpVc2VyQ29tbWVudD5TY3JlZW5zaG90PC9leGlmOlVzZXJDb21tZW50PgogICAgICAgICA8ZXhpZjpQaXhlbFlEaW1lbnNpb24+NDc4PC9leGlmOlBpeGVsWURpbWVuc2lvbj4KICAgICAgPC9yZGY6RGVzY3JpcHRpb24+CiAgIDwvcmRmOlJERj4KPC94OnhtcG1ldGE+CtcORbMAAEAASURBVHgB7N0HnBRFvsDx/8IKJhBF4mLARFIJRhAxgHhnBhHBnMCECKioGAAFAyIgT0XFgAnzgajvzOGOO3M8FeVUQFkREFHxkPC8ffPvpWe6p2t2C7Znd2bq13yW7q7+T4Vv18xObU9PFZUlFsmwrF271juy0UYbZYgoT447TnMtLS2VkpKSai3Xth3Uz3xa8KuaC374+QK8/vkSqTXPj5RFcMvWxTZO86b/BYXLt/GLmmiKrYttnOZJ/1OF8JINvz/+G337XytcLHsIIIAAAggggAACCCDgmgCDAtfOOO1FAAEEEEAAAQQQQCBNgEFBGgi7CCCAAAIIIIAAAgi4JsCgwLUzTnsRQAABBBBAAAEEEEgTKPZvXkhL93b/7//+z5QcSYs7Tgv4448/kjewRApclxB3ubb5UT/zGcGvai744ecL8PrnS6TWPD9SFsEtWxfbOM2b/hcULt/GL2qiKbYutnGaJ/1PFcJLNvyKatUOF5LY40pBhIQEBBBAAAEEEEAAAQTcEiiu7OtGlcMmJu642rVr10i5tu2gfiplXmz6C35mO03Fz2xj44Kf2c7WxTaO52/VnPHDzxeI83WN56+vGl3H6Vwoz1++kjTaT0hBAAEEEEAAAQQQQMB5AT4+5HwXAAABBBBAAAEEEEDAdQEGBa73ANqPAAIIIIAAAggg4LwAgwLnuwAACCCAAAIIIIAAAq4LMChwvQfQfgQQQAABBBBAAAHnBRgUON8FAEAAAQQQQAABBBBwXYBBges9gPYjgAACCCCAAAIIOC/AjMaBLpCNGeMC2WfctC3XNk4LYkbAKDd+URNNsXWxjdM86X+qEF7wC3v4e7YutnGaL/3P102t8UtZBLdsXWzjNG/6X1C4fBu/qImm2LrYxmmetv2PGY1ViwUBBBBAAAEEEEAAAQRCAsxoHOIo37GZ+a5QZrTTFtu0N+44/Mr7mul/m/OBn0muPA0/s42Niz7SJo7+ZzbGr2ou+OGnAry+VK0f2Poxo3FmZ44ggAACCCCAAAIIIOCsADcaO3vqaTgCCCCAAAIIIIAAAuUCDAroCQgggAACCCCAAAIIOC7AoMDxDkDzEUAAAQQQQAABBBBgUEAfQAABBBBAAAEEEEDAcQEGBY53AJqPAAIIIIAAAggggACDAvoAAggggAACCCCAAAKOCzCjcaADZGPGuED2GTdty7WN04JsZ7TLWKnAAdtybeOoXwA3sIlfACOwaetiG6dZ8/wIAK/bxC9qoim2LrZxmif9TxXCC35hD3/P1sU2TvOl//m6qbWLfsxonDr/bCGAAAIIIIAAAggggMA6AWY0NnQFZvQ0oCSSbFz0kTZxtjPu2eYXdxz1U1HzwvndcBd9JH748fpi7gM8P6rmgh9+KmD7+sKMxpn7C0cQQAABBBBAAAEEEHBWgBuNnT31NBwBBBBAAAEEEEAAgXIBBgX0BAQQQAABBBBAAAEEHBdgUOB4B6D5CCCAAAIIIIAAAggwKKAPIIAAAggggAACCCDguACDAsc7AM1HAAEEEEAAAQQQQIBBAX0AAQQQQAABBBBAAAHHBRgUON4BaD4CCCCAAAIIIIAAAkULFy4sy8SgU2HrohMhVLSY4oqKiqSsLJW17vvTSPv5pccEy1ixYoXUq1cvmBTZNpUbCUokmOLSy6Z+JrnyNPzMNiYXU6Qpjv5nfl7iVy7A6x+/P0yvG/nw/PjxncGmapJWQAJb7z052RpTP+X3W378fmvcpGnyPPobxSUlJf52ZL127VovrbIZOOOO00JLS0ulorppTNzl2uZH/VQguuAXNdEUWxfbOM2T54cqhBf8wh7+nq2LbZzmS//zdVNr/Motfkys2h91bwqGrYIS+HjWGaH3Zrb93jZOsXh9iXaZbPgxo3HUmRQEEEAAAQQQQAABBJwX4J4C57sAAAgggAACCCCAAAKuCzAocL0H0H4EEEAAAQQQQAAB5wUYFDjfBQBAAAEEEEAAAQQQcF2AQYHrPYD2I4AAAggggAACCDgvwKDA+S4AAAIIIIAAAggggIDrAgwKXO8BtB8BBBBAAAEEEEDAeYFi/7tPTRL+ZGOmY8G0uOM0b50Qo6K6aUzc5drmR/1UILrgFzXRFFsX2zjNk+eHKoQX/MIe/p6ti22c5kv/83VTa/xSFmwVtkDwvZltv7eNUzleX6L9Jxt+RbWiExNzpSBqTwoCCCCAAAIIIIAAAk4JFFc2W7Fq2MTEHVe7du0aKde2HdRPpcyLTX/Bz2ynqfiZbWxc8DPb2brYxvH8rZqzi36ZxTiSbwKm12JTmqldNnEuPj9sXNTTJs7WjxmNTT2UNAQQQAABBBBAAAEEHBfg40OOdwCajwACCCCAAAIIIIAAgwL6AAIIIIAAAggggAACjgswKHC8A9B8BBBAAAEEEEAAAQQYFNAHEEAAAQQQQAABBBBwXIBBgeMdgOYjgAACCCCAAAIIIMCggD6AAAIIIIAAAggggIDjAsxoHOgA2ZgxLpB9xk3bcm3jtCBmBIxy4xc10RRbF9s4zZP+pwrhBb+wh79n62Ibp/nS/3zd1Lqm/FI1YKtQBJjR+A8JGpjOq+3zLe44rYvt6x8zGpvOHGkIIIAAAggggAACCDguwIzGhg4Q54xxmr1NfnHH2c5oF3e5tvlRP5UyLzb9BT+znabiZ7axccHPbGfrYhvn4vM3syxH8k3A9FpiSjO1yybOxeeHjYt62sTZ+jGjsamHkoYAAggggAACCCCAgOMC3GjseAeg+QgggAACCCCAAAIIMCigDyCAAAIIIIAAAggg4LgAgwLHOwDNRwABBBBAwAWBn35aLnPmfCm//fYfF5pLGxFYbwEGBetNxgMQQAABBBBAIF8EPp/zheyx1wHSsHFLabvbPlKvQYlcOPSySr9WcvXq1XLvfQ/JypW/50tTqScCVRJgUFAlPh6MAAIIIIAAArkq8OOPy2TfLj1k3333kp+XfStrV/0o//j7C3LftIfk2rE3VVjt//xnpZw5YJD8/PMvFcZxEIFCEWBQUChnknYggAACCCCAQEhgyh33yBZb1JdJE6731sXFxdKl8z7y4P13ySYbb+zFfvDhx9Kn7ynSpPnOcsRRx8vfZ7/ppR973Mne+s+HHytLl/4oP/ywWI7vf7oX1/NPveTDjz5JlvWXGc94VyO6dvuTTJh4mxenB3UiqTGJwcc227f1Hjfs4hHy+++rvPS99z04MTh5WNrtvq9cPmK0nH/Bxcn8PvnXZ6LHf/nl12QaGwhkW4AZjQPCtjPL6UNsZ4wLZJ9x07Zc2zjqZ6bGr2ou+OHnC/D650uk1jw/Uha5tPXpZ3OkR/cDI9/vfvRRh4n+6NL/xDPlwAO6ynPPPC6PPvaUnHPeUPn04zfl8suGyetvzJZRIy+X+vXryf4H/FkaNNhCHn5wqrzy6hvSac9usvzHBd6s8DqAGHfDNbL11g3lshGjEm/8yz9ypB8/Gjf+Frl+7EjZbbd2cuLJZ8lmm20mI6+6VN597wP5YuhcuXjYBd6x3n1OkhuuGyX16m0uM2c+K3Xq1PEGMrnkqXUJzuZr2+9t4zR/Xl9UIbxkw880o3FxuFj2EEAAAQQQQACBwhBYvvxnadq0SYWNGZ1403/Yn3tKUVGRdGi/m9w84VbR+wn23KOj97h99t5TdHChb+LnffWJbL/9ttL94AO8+w10cKBvkg8/7FC55OLBXrze0Dz62hu87al33y8XDj5Xzj9vgLc/8qrLvGM6KNBl8qRxctqpJ3h56GDg5Vdel17HHCGPPTFDzj/3LC+G/xCoLgFmNDZIxzljnGZvk1/ccbYz2sVdrm1+1E+lzItNf8HPbKep+JltbFzwM9vZutjGufj8zSyb3SM77thSXn/975FC9Obj11+fLecl3njrm/idW3eSJUuWyg47bB+J1YRvvpnvpbfcaXdv7f+nHyvSwUK7dq39JNl77z2S2198OVeuGJH6WFDLltvJwoXfJ4/vsy5Wn58nnXi8zHrmf2X3xBWFzz//Qo45+ohkXC5tmF5LTGmmOtvEufj8sHFRT5s4Wz9mNDb1UNIQQAABBBBAoCAFdm3XRvTz+YsXLwm176bxk+XjTz6Vr7+e532W/6Ybr5Xff/tBZjz1cCjO39H7EnT5oXSu/OfXRd7Pu2+/Jsf2Pkrq1q0r8+Yt8ENDZe3RqUNiEFCaPDZ37ldyaM/uyX29OuEvfY49Wp76yyyZ+fRz3seZmjdv6h9ijUC1CHCjcbUwUwgCCCCAAAIIVLfAaaeeKC1aNE98i9AF3ht3/Uahe+59UKbdP13OHni6LPvpJ69Ket+BvkG/9ba7vP3//rdMatUqf4u0/OefpVPH9l76gw89JsXFteW11/8me+1zkCxJXCnonPhmo+dfeFn++ebb3s3I198wIdlM/Wv//Q884l1pWLNmjTzy6JPyp0N7JI8HN7rt38XbvXj4lXJC/+OCh9hGoFoEGBRUCzOFIIAAAggggEB1C2y22abeX////dXXssPO7WXzLZrLWQMvkKl3Tvbe6O+1ZyfvfoCSbVvLxps1SdwEvKk0btxIBpw92LupeL8u+8quiW8HWrNmrTw6/V655NKrpO6mjb1vKbpuzNXSrm1r6d+vj3ezcK9jT5JmLVpJo0ZbyyabbOI19fi+vbz7E3bcpYP3uFWrVife8PdJMgSvFOg3I+kgRpfevY5MxrCBQHUJcKNxdUlTDgIIIIAAAghUu4DeMPzFZ+9Kaeki71uB9HP9+gZcF31T/uysx+S770plq6229AYF+k1B+uZdl9l/e170ZuUtt2wgx/ftLUcc/ieZN3+BlDRv5qVpjH4EqVu3/WTE5Rd5+enVBP8qg97k/MF7f/OuUui3CW2zTYkXo48r+7+fdRVaNt10Ezn5pH7SsOFWoXR2EKgOAQYF1aFMGQgggAACCCBQYwL65l8/RpRp0Tfr/rJxYv4C/fEXHRD4i15J0PsUgou+2T+o+xFy5RWXyNYNG8p1N9ws48ddmwzRGz932mmH5L5pQydI068uvXHcJG8QYYohDYFsC/DxoWwLkz8CCCCAAAIIFKyAXnl4561XZaPE1YdFP/yQmBjtTu+v/evTYL2yUDcxuHj/3TekY4fwNxytTz7EIlAVAa4UVEWPxyKAAAIIIICA8wJ6b4L+bOiik6ONvPqyDX04j0MgFgGuFMTCSCYIIIAAAggggAACCOSvQHFpaer7c9OboVNN66Kfh6toMcXp5/fKysqSD9N9f5pmP7/0mGRwYmPFihWJm4Iy101jTeUG8/C3TXHpZVM/Xyu6xi9qoikmF1OkKY7+h196Hwj2HV7/+P1het0I9hF/2xSX3rdq8vebX0/WhSMQfG+W6/2P+pn7nbo0bhKdB6O4pCR1c036Q3Xqbl0qm0Et7jgtUztdRXXTmLjLtc2P+qlAdMEvaqIpti62cZonzw9VCC/4hT38PVsX2zjNl/7n66bW+JVb/JgiYatABYLvzWz7vW2ckvH6Eu042fBjRuOoMykIIIAAAggggAACCDgvwD0FzncBABBAAAEEEEAAAQRcF2BQ4HoPoP0IIIAAAggggAACzgswKHC+CwCAAAIIIIAAAggg4LoAgwLXewDtRwABBBBAAAEEEHBegEGB810AAAQQQAABBBBAAAHXBRgUuN4DaD8CCCCAAAIIIICA8wLF/nefmiT8ycZMx4Jpccdp3jqxQkV105i4y7XNj/qpQHTBL2qiKbYutnGaJ88PVQgv+IU9/D1bF9s4zZf+5+um1vilLNgqbIHgezPbfm8bp3K8vkT7Tzb8impFJybmSkHUnhQEEEAAAQQQQAABBJwSKK5stmLVsImJO6527do1Uq5tO6ifSpkXm/6Cn9lOU/Ez29i44Ge2s3WxjeP5WzVnF/0yi3Ek3wRMr8WmNFO7bOJcfH7YuKinTZytHzMam3ooaQgggAACCCCAAAIIOC7Ax4cc7wA0HwEEEEAAAQQQQAABBgX0AQQQQAABBBBAAAEEHBdgUOB4B6D5CCCAAAIIIIAAAggwKKAPIIAAAggggAACCCDguACDAsc7AM1HAAEEEEAAAQQQQIBBAX0AAQQQQAABBBBAAAHHBZjRONABsjFjXCD7jJu25drGaUHMCBjlxi9qoim2LrZxmif9TxXCC35hD3/P1sU2TvOl//m6qXVN+aVqwFahCDCj8R8SNDCdV9vnW9xxWhfb1z/TjMbFpsaQhgACCOSjwKDxr61HtT9dj9iaCKV+JvU7LjvElExaDgl8POuMHKpNdqtyx2Nz5Jzj22S3EHJHoJoEmNHYAB3njHGavU1+ccfZzmgXd7m2+VE/lTIvNv0FP7Odpk64tGfmgxzJa4FhN75o9XrK8yPzac7260v7Xk+FCvf/olpZubZxmnlpaamUlJSEyknfsc2vqnF39C6SKY9+Hio+l+oXqti6nTjr5+df2fldnziev75WdG3jbOvHjMZRX1IQQAABBBBAAAEEEHBegBuNne8CACCAAAIIIIAAAgi4LsCgwPUeQPsRQAABBBBAwEpg9OjRUlRUlPzRBwX39TgLAvkqwKAgX88c9UYAAQQQQACBahUYOXKklJWVJX+08OC+HmdBIF8FGBTk65mj3ggggAACCCCAAAIIxCTAoCAmSLJBAAEEEEAAAQQQQCBfBRgU5OuZo94IIIAAAgggUK0C3FNQrdwUVs0CzGgcALedWU4fYjtjXCD7jJu25drGUT8zNX5VcykkP7MEqfkg4H+vfEV15fU5qlNIz9+aPL8jRowQ/fGXOnXqyJo1a/xdb71o0aKCmPE21KgMO7b9yjZOi6nJ85uhmaHkQqmfaUZjrhSETjU7CCCAAAIIIIAAAgi4J8CMxoZzHueMcZq9TX5xx9nOaBd3ubb5UT+VMi82/QU/sx2phS/A88N8jm1c9JE2cby+mI0z+aWb4rd+funR+KWLpPbT+1rqSGrL1o8ZjVNmbCGAAAIIIIAAAggggMA6AT4+RFdAAAEEEEAAAQQQQMBxAQYFjncAmo8AAggggAACCCCAAIMC+gACCCCAAAIIIIAAAo4LMChwvAPQfAQQQAABBBBAAAEEGBTQBxBAAAEEEEAAAQQQcFyAQYHjHYDmI4AAAggggAACCCDAoIA+gAACCCCAAAIIIICA4wLFpaWlGQl0KmdddCKEihZTXFFRkZSVlSUfpvv+NNd+fukxyeDExooVK6SiummsqdxgHv62KS69bOrna0XX+EVNNMXkYoo0xdH/sudnOgekFY6A/3sh/TkUbCG/P/j9a3rdDfYRf9sUl963Knt/4PdJP0/6H/3P1K/8/hFcm+LWt/8F89Nt2/7XuEnT9IdKcUlJSSTRT1i7dq23WdkManHHaaH6JKuobhoTd7m2+VE/FYgu+EVNNMXWxTZO8+T5oQrhpdzv03AiewUnUNnvBW0wz4/oaef1JWqiKbYuFcWl90n6X9S6Ir/0aPzSRez7qT7S1o8ZjaPOpCCAAAIIIIAAAggg4LwA9xQ43wUAQAABBBBAAAEEEHBdgEGB6z2A9iOAAAIIIIAAAgg4L8CgwPkuAAAChSOwdvXKwmkMLYkIcH4jJCQggAACsQkwKIiNkowQQKCmBPTGquHDh8un/5xRU1XIWO4B++4tkyfcHDr+0QcfSIO6G8myH38MpW/IzqLvS728ND/Tz/rm+ezTM2XeN9+s78OqJV7P70UXXeTdSFctBVIIAggg4JAAgwKHTjZNRSBfBKZOnSpt27YV/Wq29u3byz333GOsug4G9E1iixYtvOOt9viTMa6mE4Nfz6x18ff9dVXqp18r98X8Bd7PE7Oe8bL6x3sfJNPWN+/rr71GPv7wg/V9WLXE++dXz3dFg4Pp06cn+4/2I+1PLAgggAACFQswKKjYh6MIIFDNAvoGbvLkyXLXXXd5b551feutt4be2KUPBhYuXCjjxo2TTes3rObaxlPcpPE3yZ67tpW2O7SUm66/LjloeP/dd+XP3Q+SnVuUyDlnnC4/LVvmFfjw/ffLdaNHyaCzB8hFgwdJ02bNvZ9GjRp7x5s0bZpMm/7AA7Lfnp2kQ+td5PprRifni9ErAkf07CEttt7Ky3vFr7/K2FEj5bN//UtGXHKJvP7qK/E0LsZc9PzefPPNoudbF9PgQPvPtGnTQv1H+xMDgxhPBFkhgEBBChT73x1rap0/2ZjpWDAt7jjNWyd0qKhuGhN3ubb5UT8ViC74RU00xdbFNk7zLOTnx8SJE703dF27dtWmiq7vuOMOGThwoHTu3Nm7ajBp0iQZMmSIzJ8/X5o3b+7FrY+f94Ac+e+9d96R2xLtmf7UX+TbBfPlwvPOlYN7HCLbbLetdO/aRc4+73y5atQ1csvN4+XEvn3kr6+8JosWfS/jrhsr3Q/pKUMSb+AzLS+98LycN+BMuXHiJGnVurWcd9ZZUisxGeVZZ58jJ/U9TqZNf0QabLmlXDH8Enngvnul7wknyhOPPiL9Tz5Fdtu9faZsazRdfy80btxYbrjhBhk8eLBoX9DBgfaHsxLtM/WfKVOmeP3ntNNOS9Zd+4vNlRrbfmUbpxUo5OdvEnjdhq2LbVwu+qW/V+H8pvcC+9+DuXh+01tTKOe3qFZ0YuLi9MayjwACCMQt8I9//EP058MPP5R///vf8v3338svv/zi3QcwduzYSHH+gMA/oPtz5syR3XbbzU/y3gzqG8Lg0vGgE0Uu7RlMyvnthd99K0uXLpHff18pR/c+Vlq3aSsNG20tTz32mDQvaSE3TJjofYyqUZMmstdu7WTx4h+8NulVAf24UK1amS/43nPnnXLy6ad7Awt90IirR8qk8ePkxFNO8fJYsmSJHHLon+SxGTMT5a+SnXfZRTbbfHNvANFw6629mFz678PXpkudqw83Vkn7gt8fMvWfOnXqRB6rk3PWr19fmjVrJjvuuKPXx/bdd1/p3r271E4MoFgQQAABVwSKK5utWCFsYuKO0xfjmijXth3UT6XMi815w89sp6mF4qdv/vVegEcffVSaJj7OcuCBB8qxxybe9Cb+Yq1/2d088eazuLhYxowZE8LQz4DPnj3bu0LgH9D9Nm3ayIwZM7yrCBMmTJBhw4Z5P/5sovrXunNueMl/SM6sGzduIr+vDH8r0upVq7z61d9iCznymF7eX+aPOrSnbF6vnpx0yqkycsxYmff11/J96ULZcuPwG9mffiz/CNGBiTetFQ0ItICv5n4pzz/3rDx4331JDy2jxTbbypgbx8nwIRd6P4f++TC5bnz4ZujkA3Joo+NBJ8gHrz6UrJF+jEz7gt8f9GpSr169Mvafzz//PPlY/6+7et/Kzz//7A1U586dKx999JHcdNNN0qdPH6+/9u/fX3r27Gn1vNTMC+X5a9MO2/bGHZdrvz/SrXKtfuofXKhfUCO8nX4uw0fL9wrFjxmNTWeXNAQQiFVAP9KjN4Huv//+svHGG8srr7wi77//vvdZcH2D1bFjR2nUqJE3IDAVPHToUDn33HO9N3Z6XAcE55xzjmh6q1atKv1MuSnPmkxr066dfJhof3D58osvElcE2oj+5Vrf+I9KXC2Z/8MSufXOu+Spxx+Xxx95RLZo0EA67bmnLFr+i/fz7ZIf5fnX3pAdd945mFWF21tutZUMufiSZB5z5s2XZ1982bs34bAjj5LFv/4mz7z4kvy64le5IXGDcb4spntK9F4D7R/aT84+++xQ/9H+pOmmRQemWyeuiuy+++7eQEAHqa+//rp8++233sfVrr76aunWrZs3IDU9njQEEECgUAQyX3culBbSDgQQqDYBvSFY35jpRzH0jZt+NEivDKzPMmDAAO+z4vpXX/0rrq4HDRokmu4venUg/YZT/UrSlb+W/xXdj8uF9R577SUv/PV/5blZT8vq1avlk8Rfom8cO0a6JAZNujw3a5acd+aZ3vZRvXrLTq12kVWrV0nnxEemPnjvPW9AoQ5Tbv0fOTlxH0BlVwe8jNb9d+DB3UVvKP7hhx/kt//8lrgpebD8z8QJ8l3iDW+3ffaSRYmPce1/wIHSLfHza+LjXLrom+TlPy1fl0NurfT8Br9tSm841n7gXy3S2mo/0XsHgv1H7z0I9h+bVunA9fzzz5e33npLLrzwQrnmmmvkuOOOkwULFtg8nBgEEEAg7wS4pyDvThkVRiA3BfSN2NeJj7y8k7hxVv/yqlcJNnTRN3D+mzj/Yx6mvPzBgX6UaPz48fLl+88nwvqbQmssTe8TuOTyEXLicX2SddAbhMfcMM7b7923b2IegwmyfdPG3seHdk3cN9G3X3/Rv/Kff+EQOazHwV6c3kNwz0MPeW/adZBgMzgYNGSovP3mm9KxTSsvD73y8MCjj3kfH+rR81DvG4k03y0abCG3Tb3Hi9G6DR10XqL8LeWYY1N19g7W8H96fpt3bOp9+1BwIJBerRNOOEEuqeAG7PT4yvb1Y2/9+vWTa6+9Vjp06CB3Ju7V6Js4bywIIIBAIQkwKCiks0lbEKgBgd9++837HHfLli3l73//u1cDvUpQnYu+QdSvJD1z9NPVWax1WVeMGi3Dr7hSvv7qq/L7KRKf6/cXvefgwzlfyPx58xLfBNRAmiTmHfCXseNukqGXDJeliRuCWyZugvUHWhddepkfElp36NRJfl69NpmmH0F6+vkXvCsDepVip8RHj3RAoYt+89B3394ga9aslR132in5mKuvHSMXDB0mer9Dri27duklN4+puYHKVVddJV26dJHTEzdvz0ucr0svvTTXiKgPAgggsMECDAo2mI4HIoCA/hX/yCOPlL0SH5HRN+U1vWxUd9OarkLG8vUGNr2PwLTUrVvX+8Yf07GtEx9j0Z8NXXQQsO122xkfvs225nS9SpGLSy6cX/1WIh386o3IOiDWqwcsCCCAQCEIcE9BIZxF2oBADQnoRyr0Bs1cGBDUEAHFOiiwXWKQ9cILL8iLL74ovXv3dlCAJiOAQCEKMCgoxLNKmxCoBoHLLrvMmzvglltuqYbSKAKB3BLYKnE15fbbb5fPPvvMm1wvt2pHbRBAAIH1F2BG44BZPs+oGGiGt1koM+6lt8u0b3vebOO0DPyi0kG/Bx54QJ5++mnvYxSmG4Fz3S/aOlLyRcDU39LrXl39T6+SPZL4+lidx6Be4j4R26sG1VW/oEvw+RtMN21Tv6hKRX7pfRK/9fNLj8YvXSQ7M0Izo3HUmRQEEFhPgbffftv7ZiD9XPUWOXgz6no2h3AEqiSgs2zrBH06MNCrBz169KhSfjwYAQQQqCkBZjQ2yLs0o50236a9cccVyoyAcbvY5ldTfjrz61lnnSX3JWbI3W+//bS6xqWm6mesDIkFJWDzelXd/U8HAnrF4KSTTpJXX31V2rdvX6F5ddcvWJlc9Mv3+qWbcn6DZzS8nW4VPlq+h59JpTwtTj/TjMZ8+1Bme44ggECagA4IevXqJaeeemraEXYRcFtAPzr0008/eROc6cCgRYsWboPQegQQyDsBBgV5d8qoMAI1I3DFFVd4BV9//fU1UwFKRSDHBXTQrFfTdOZjHRhssskmOV5jqocAAgikBBgUpCzYQgCBDALTpk2TWbNmyezZszNEkIwAAipw+eWXy7Jly7yBwbPPPgsKAgggkDcCfCVp3pwqKopAzQi89dZb3gyud999NzcW18wpoNQ8Exg/frw0Skw4x8fs8uzErUd1p06dKm3btvUeoWvdZ0Eg3wUYFOT7GaT+CGRRQD8Kcdppp4leKdhnn32yWBJZI1BYAnoz/vLly2XYsGGF1TBa4w0AJk+eLHfddZeUlZV5a91nYEDnyHcBBgX5fgapPwJZFNABATcWZxGYrAta4IknnhD9Ct+xY8cWdDtda9zEiRNlypQp0rVrV6/putZ9TWdBIJ8FuKcgn88edUcgiwI6Y3FRUZFwY3EWkcm6oAXq1q0rOjA4+OCDpWHDhnLOOecUdHtdadycOXOSAwK/zTow0HQWBPJZgBmNA2evohkLA2HeJjPupYtkZ8a9aCnRFNvzZhunJbh+fnXG4pkzZ4ZmLC4kv2gvIiVfBNJnjzXVO5eev3pvgT/rsU7216dPH+dfX0znLJ9eX9q0aeN96YJ/pUDbo1/CoOnaP3Op/5msqV9UJZ/6X7T24RTb82ua0ZiPD4Ut2UPAeQH9uIN+taLeWNygQQPnPQBAoKoCu+66qzcwOPHEE+W1116ranY8voYFBg8e7F318b+NTdd6FUjTWRDIZwFmNDacvThnjNPsbfKLO44ZAQ0ndl2Szflw1U9vLB4wYIA3Y3Hwr2BBzVz3C9aV7cITyPX+l6l+OuuxfpSof//+3gBh2223tTo5mfJLf3Ccca6+/qWbmvbVWQcAajRw4EDvI0N6hWDo0KHea6c+Bj+TXHmaTT/Fr3r8mNE4szNHEEAgIXD66afLMccc433jECAIIBCvwLHHHuvNYaBvKt944w3ZZptt4i2A3KpNQP940q1bN2ndurXMmDFDWrVqVW1lUxAC2RLg40PZkiVfBPJMQG8s1oUbi/PsxFHdvBLQvy4ff/zx3uRmK1euzKu6U9mwgH4lqS7+OnyUPQTyT4BBQf6dM2qMQOwCemPx008/7X1sKPbMyRABBEICgwYN8r695rjjjguls5M/AqWlpTJhwgSvwrrWfRYE8l2AQUG+n0Hqj0AVBfwbi3WyJW4sriImD0fAUkBnPW7SpImccsoplo8gLJcEdCDgT0yna3+AkEt1pC4IrK8Ag4L1FSMegQIS0BuL/W8a2nfffQuoZTQFgdwXuPfee+WXX37xblLN/dpSQ1/Av0qQPijgaoEvxDpfBRgU5OuZo94IxCCgNxYfddRR/LUyBkuyQGBDBPQbid59910ZM2bMhjycx9SAgH+VoKSkxCtd11wtqIETQZGxCzCjceykZIhAfghcfvnlXkXHjh2bHxWmlggUoECdOnVCsx6fe+65BdjKwmmSf5Vg4cKFoUbpoKBFixbJjxSFDrKDQJ4IcKUgT04U1UQgToFp06Z5MxbrfQQsCCBQswLNmjXzBgYjR46Uxx9/vGYrQ+kVCqRfJfCDuVrgS7DOZ4GixGi3LFMDdKpkXXQiiYoWU1xRUZGUlaWy1n1/Gmk/v/SYYBkrVqyQevXqBZMi26ZyI0GJBFNcetnZqt/jY18wVYm0AhLof/VhFbamJvufVsx/vvmV/OCDD7yPDM2aNUs6depUo88PU/38evrr9fEbff+n/sNYF6jANWe091qW/hoebG6+/v548803va8rnT59unTu3NlrUvrzN9hO3V6f54fG+/lly2/ym1dqMSwFLDC4c+qjbrnW/9LZqV+6SPm+ujRu0jRysNj/TFzkSCJh7dq1XnJlM9DFHaeF6iW6iuqmMXGXa5vf+tZv0Oiz9CEsBShw68i7q72fKuOGPj/0xuLhw4d7Xz165JFHemfEtt/bxlWlfl6F0v6zLVfj7rismdUM4hvql1Y1b3d96qcPqOz1VGOonyqEF1tnfVS++vXp08e7YqA3/7/44ovSvn37SvuLrYttXBx+/btcGD557BWMwCP/vCX0O8+2X9nGxdH/gti25drGFVL9mNE42FPYRsBBAb2x+Oijj2bGYgfPPU3OD4HevXt7sx7369fPGxjssMMO+VFxaokAAnkvwI3GeX8KaQACdgJ6Y7F+pO+GG26wewBRCCBQIwIDBgyQJUuWSP/+/eW1116TTTfdtEbqQaEIIOCWAIMCt843rXVU4P7775cZM2bIW2+95agAzUYgvwT0Y34//fST6KzHzz33XH5VntoigEBeCvDtQ3l52qg0AvYCOhA47bTTRL9xiBmL7d2IRKCmBfSqHrMe1/RZoHwE3BFgUODOuaalDgrobKl6H4F+9SgzFjvYAWhy3gv4sx4PGTIk79tCAxBAILcFGBTk9vmhdghUSeDMM8/kxuIqCfJgBGpeQGc9fu+99+Taa6+t+cpQAwQQKFgB7iko2FNLw1wXuPLK8u8L58Zi13sC7c93gfRZj88777x8bxL1RwCBHBQo9r+b1VQ3f7Ix07FgWtxxmrdOrFBR3TQm7nJt84u7fpofS/4KVHc/VanKnh8PPvigN2Px66+/Xu3PI5v6aYzt8y3uOOqnAtHF1lkfWVn/0xjb/OKOK9T6bb311vLII49Iz549vXuD9AbkbDjH7edVkv8KSiD4O4/nr/nUxu1im5/Wxvb1uahWdGJirhSYzyepCOStwDvvvCM6+dGrr77KjcV5exapOAJRgXbt2smjjz7qDQy22mor6d69ezSIFAQQQGADBYptZte0idHy44zTqdjjzK8m67eB54aH5YlATfTTTM8PnbFYBwR6c+J+++3nCeZS/UynlPpFVTKd32hkvK+7mr/N+aB+pjNRnpZtv4MPPtib9VjnMNCB/6677uoVbFOuBtrEZeP8luvwfyEImPqQKc3UVpu4bPQ/m3K1vjZxhVI/04zG3Ghs6rWkIZCnAl26dOHG4jw9d1QbAVuBXr16yU033eTNYfD222/bPow4BBBAoEIBBgUV8nAQgfwRuPDCC6VNmzbMWJw/p4yaIrDBAnpFsFOnTqLP+6VLl25wPjwQAQQQ8AUYFPgSrBHIYwGd/fSTTz7xPm+cx82g6gggsB4Cjz/+uBx++OHez9dff70ejyQUAQQQiAowKIiakIJAXgkMHDhQPvzwQ3nmmWesPg+ZV42jsgggUKHAVVddJXp/wf777y8vvPBChbEcRAABBCoSYFBQkQ7HEFhPgdGjR4cekb4fOljFnY8//th7I7BmzRp56aWXZPPNN69ijjwcAQTyUWDo0KFy6623ykknnSQjR47MahP8+U/8QtL3/XTWCCCQfwIMCvLvnFHjHBYYNWpUqHbp+6GDG7izatUqGT9+vOy9995y/PHHy7Rp0zYwJx6GAAKFItC7d2/56KOPZO7cubLbbrt5cxpko21jx44NZZu+HzrIDgII5JUAg4K8Ol1U1mWBL774Qq644gopKSmRRYsWyZdffimDBg1ymYS2I4BAQEBfG3SCs+uvv16mTJkiHTp0kEmTJnmvF4EwNhFAAAGjADMaB1iyMWNcIHs2C1QgOLujNjF937Zf+XG61vkGFi5c6L3xf//99+WNN96QxYsXS9++feW1117zJiVr1qxZpKwgsZ9fMM20HXeclmE7o6KpPulp1C9dpHw/bhfb/LR0zm/0nOSS36GHHir6o/MYPPzww3L11VeLTnymX1ncsWNH2XnnnaV58+ayxRZbSHFxdA7T1atXy8qVK6ONXJeix4LtDcb+94//ZnwcBwpDIPg7LtgPKmqdbZzmwetLVDIbfsxoHHUmBYEqCbz4/jNySZ2BoTzq1KkT2t90001D+5Xt6OQp+staf2nrL2/9JT5hwoTkZGT6eL1SwIIAAghUJKATnenPPffcIy+//LLonAYzZ86Ub775xnsN+fXXX+Wiiy6KfI1xWVmZFBUVZcy6QYMGoWPB/b2PaScn7h86zA4CCOSJADMaG05U3DPaGYogqUAEeu5xpLz43qxka/QXqf5C9Rfd1xuBdamsX/l/faksTvMqlBkVbVw0RhcbF9s4/DxS4382zvgZ6bzEXPXr0aOH6I+pftdcc02oQaWlpd7HFEOJ63b81zT/9Ur/COK/xmnIpU+ebnoYaQUkYOpDpjRTk23ieH0xyZWnxenHjMaZnTmCAAIIIIAAAggggICzAtxo7Oypp+EIIIAAAggggAACCJQLMCigJyAQo0D6V5Cm78dYFFkhgAAC1S4wZsyYUJnp+6GD7CCAQF4JMCjIq9NFZXNdIH3ioPT9XK8/9UMAAQQqEtCvRQ4u6fvBY2wjgEB+CTAoyK/zVe217dxzT5l4+02hcj/85H3ZpFktWfbTj6F0dhBAAAEEEMh3gSO7HCkdSzoaf/71wb/Wq3mLFi6Sl559ab0eQzACNSUQ/YLimqoJ5easQPDbdLSS/r6/ztmKUzEEEEAAAQTWU2Da09Pkv/8tn2+hZ6eecvVNV0vX7l29XBpsFf461sqynjtnrky+brIccsQhlYVyHIEaF+BKQY2fgvyvwM233ii779daduq0rdwwaUxy0PDeh+9Ij2MOkG13aypnXnCq/LR8mdfYBx69T64ZN1LOGXaWDLrknPwHoAUIIIAAAgUj0LBRQ2nUpJH3o43SgYC//+VnX8qZvc+U7u27y5UXXim/LP/Fa/evv/wq464e56Ufe9Cx8sZLb0jpt6UyfuR4WbhgoVw88OKC8aEhhSvAjMaBc5uNGeMC2Rfk5rsfvC233DlRnpw2UxZ8N1/Ov+Rs6XFAT9m2xXay/2H7ynlnXiCjLrtWJtx2k/Q9vbe8PPMNWbT4e7l+4rVyyIGHykWDhue9i/993ZkaYtuvbOO0HGZ8jGrjFzXRFFsX2zjNk/6nCuEFv7BHIe4tW7pMTj78ZOl3Rj85f/j5Mu32aTLszGFyz1/ukZmPJH4Hfr1Abn3wVvnH6/+QIacNkTc+f0N69e8lD9/9cOIPY2cWDEnwd55tv7eNUyReX6JdJRt+zGgcdSaligLflX4rS39cIit/Xym9jugjrXdpK40aNpLHZz4iJc1ayPhrJ3kzYzZu1ETad20ji5f84JXYaOvGMvPh56RWLS5WVfEU8HAEEEAAgWoQeH7m89KkWRMZfs1w7/faVo22kl7desmyJcu8qwLLly2Xjeps5A0A9th3D9GJ3XZsvaNsutmm0ma3NtVQQ4pAoGoCzGhs8ItzxjhD9nmV1CTxZn7l77+H6rxq9Spvv379LeTow3rLSX1PlT8f10PqbV5PTul3ulwz4jr5Zv43UrpooWzavHbosT+uuzn54G49CmZAYNNfFCHOOGZ8DHWr0I6NM34hstAOfiGO5I6NiwbbxLnY/5KQebyhHwNavGixdGrRKdSK5T8tlzMuOEMuO/cyOa77cdJiuxZy4oATpePeHUNxhbJj6uOmNFN7beJcfH7YuKinTZytn2lGY240NvVa0pICbVvvKh98/F5yXze++PccaZO4IlBnozry7cIFMuaK6+WmaybIq397WYaMuEDatm4nW9RvIHt02Ete/Mtr3mP1cuPnX34qO++4SygvdhBAAAEEEMgHgXr160m7Du3k7ifv9qqrH+n46ouvZLsdt/M+OnT79Nu9ewxef+F1ufHKG2WfrvvkQ7OoIwJJAT67kaRgwySwV8e95K8vPyfPPD9TVq9ZLR9/+qFcd/O10nXfbl74rL/OlAEXnu5tH3P4sbLLjq1k1apVst++XeX9j971BhRFRUVy2923yPFnHCu1iuhyJmfSEEAAAQRyW6DjPh3ls48+k88//tz7+ND0u6fLRWdd5P1eu23cbXLfbffJ1k22lj/3/rPXkNWrV3tXxFf+Z6X88X9/5HbjqJ3zAvrHW64UON8NKgbQ+wQuG3Kld5OwH6k3CF8/snzugr7H9JNJU26WZq0beh8f2rXN7tL/2BNlywZbyeCzh8khvQ70Hqb3EDwwZboUFxdLUeIfgwNfkzUCCCCAQD4IdD6gs5w88GQ589jym4a32noruf7266V2cW054awTZOBxA0UHCroc0/8Yab1ra9FvMtJFv5Fo5t9netv8h0CuCeiAYNmyZQwKcu3E5GJ9Rl56jYwYdpV8Ne/f0qL5Nt6bf7+eegPxZ2/9W+Yt+Ea23GJLadK4qX9Ibhw1Xi654FJZvHSx7NhyJ9m47sbeseEXjkjGsIEAAggggECuCnxY+mGoasNGDpPTB50u+k1E27bcVurUreMd36vLXjL7i9ny/cLvvXsKNtl0Ey9dv8r0xfdf9K6ghzJiB4EcEvjttxXe18lzpSCHTkouV0VvbtH7CExL3Tp1pfXO5m9W2DrxTUT6w4IAAggggEAhCGzZcEvRn/Rls3qbyc5tdk5P9q4kbLb5ZpF0EhDIFYHVq9d4VeED3rlyRqgHAggggAACCCCAAALVLFBWVuaVyKCgmuEpDgEEEEAAAQQQQACBXBNgUJBrZ4T6IIAAAggggAACCCBQzQLFpaWlGYvUqaZ10YkQKlpMcfo1lP7lCH2s7vvTNPv5pccEy1ixYoVUVDeNNZUbzMPfNsWll53N+vn1YF2YAhvST6uz//nPt0z6Nf38oH7RM1NIr3+cX7fPb7T1pOS7QPB3Hr8/zGfT5GKKNMVV1/uDxk1SXwzj1624pKTE346s9SuKdKlsBrW447RM7XQV1U1j4i7XNr/1rZ/GsxSuQLCfjh49WkaOHJlsrO6PGFH+bUtxPY8080J6fsTlkq3nL/VLdufkBv0vSZHccL3/aZ+YMGGCFHdOkrBRoALB33m2/d42Tsl4fYl2nGz4mWY05uNDUXtSENhggVGjRoUem74fOsgOAgggkKMCU6dOlbZt23pX+XWt+6ZF38BddNFF0qJFC9Nh0hBAII8EGBTk0cmiqggggAACCGRbYPr06TJ58mS56667vI8B61r3gwMDHQwMHz48ORhYuHCh3HzzzdmuGvkjgEAWBRgUZBGXrBFAAAEEEMg3gbvvvlumTJkiXbt29aqua92fOHGifPnll96VgZYtW3rH/MFA8CMl+dZe6osAAuUCTF5GT0CgCgIvvv+MXFI0MJSD3iQUXOrUKZ/xMpjGNgIIZE+gc+fO8uabb2avAAdy9gcEflN1f86cOdK6dWs/SSZNmuT9JBMSG8OfOC24yzYCCOSRAFcK8uhkUdXcE+i5x5He5XX9pi3/27b8bX9/zZo1oj/BdNO2bZw+Vv86Z8ojmGabX9xx1K+8LwTPhW7bOuNXdb8nnniC58e61yS/H65P/9tll11k9uzZoRdc3W/Tpo188cUXMmzYMO/YkCFDIq9FoQexgwACeSXAoCCvTheVRQABBBBAILsCZ511lpx77rnJgYEOCHR/6NCh0qpVK+/egfnz53uV0BuM9UZjvceABQEE8luAQUF+nz9qjwACCCCAQKwCJ5xwggwePFgGDhzoffuQrnV/wIAByXKaN28u48aN864UaKI/OEgGsIEAAnknUOx/96mp5v5kY6ZjwbS44zRvndChorppTNzl2uYXd/00P5b8FQj206uuuirUb3Xftl/ZxqmUS88PWxfbOPzMzzX8quZSaH6nnXaa6E9wCb7W+e1t3Lix3HDDDd6gQe8xYCl8AVM/qKzVfn+pLE6P8/stqpQNv6Ja0YmJuVIQtScFgQ0W0EFAcEnfDx5jGwEEECgUAf/KQaG0h3Yg4KJAcWWzdSqKTUzccbVr166Rcm3bsT710zxZCleA50f03K7P8wM//FQgzn5A/4v2KT/Fxjkbfn75rPNfwNSHTGmmltrEZaP/2ZSr9bWJK5T6MaOxqYeShgACCCCAAAIIIICA4wJ8fMjxDkDzEUAAAQQQQAABBBBgUEAfQAABBBBAAAEEEEDAcQEGBY53AJqPAAIIIIAAAggggACDAvoAAggggAACCCCAAAKOCzAocLwD0HwEEEAAAQQQQAABBBgU0AcQQAABBBBAAAEEEHBcgBmNAx0gGzPGBbJns0AFgrM7mppo269s47QMZnyMSuMXNdEUWxfbOM2T/qcK4QW/sAd7hSsQ/J1n2+9t41SN15do38mGn2lG4+Jo0aTELXDryLvjzpL8EEAAAQQQyEmBR/55S07Wi0ohgEDFAsxobPCJc0a7C289rdIZ8vxRd2Xl2sZpk0pLS6WkpMTQulSSbX5xx7lWP1+8svO7PnGFMqOitjlOF9v88PN7W3Rtcz7wi7r5Ka773djnPp/CWxf674+ioiIpKysLtdml379+w236vcbaxPH64qtG13H6MaNx1JcUBBBAAAEEEEAAAQScF+BGY+e7AAAIIIAAAggggAACrgswKHC9B9B+BBBAAAEEELASGD16tOhHhvwffZC/rWs9zoJAvgowKMjXM0e9EUAAAQQQQKBaBUaOHOndQ6D3Efj3EvjbutbjLAjkqwCDgnw9c9QbAQQQQAABBBBAAIGYBBgUxARJNggggAACCCCAAAII5KsAg4J8PXPUGwEEEEAAAQSqVYB7CqqVm8KqWYAZjQPg2ZgxLpB9xk3bcm3jtCBmBIxy4xc10RRbF9s4zZP+pwrhBb+wh79n62Ibp/nS/3zd1Bq/lEVwy9bFjxsxYoToj7/UqVNH1qxZ4+9660WLFok/P0PoQGDHzy+QZNyMO04L4fkRpbZ1LiQ/04zGXCmI9g1SEEAAAQQQQAABBBBwSoAZjQ2nO84Z4zR7m/zijmNGQMOJXZdkcz7ww88XsOkvGhtnHP3P14+ubZzxi7r5Kfj5EuG1jYs+whSXnkb/C9sG99Ktgsf8bfx8ieg6Tj9mNI76koIAAggggAACCCCAgPMCfHzI+S4AAAIIIIAAAggggIDrAgwKXO8BtB8BBBBAAAEEEEDAeQEGBc53AQAQQAABBBBAAAEEXBdgUOB6D6D9CCCAAAIIIIAAAs4LMChwvgsAgAACCCCAAAIIIOC6AIMC13sA7UcAAQQQQAABBBBwXoBBgfNdAAAEEEAAAQQQQAAB1wWKFi5cWJYJQafC1kUnkqhoMcUVFRVJWVkqa933p5H280uPCZaxYsUKqVevXjApsm0qNxKUSDDFpZdN/Uxy5Wn4mW1MLqZIUxz9z/y8xK9cgNc/fn+YXjd4fuTe86NFixaSeB8VOjU8f3n+5sPzt3GTpsl+u2jRIm+7KPHGPfXOPXm4fGPt2rXeRmUzqMUdp4WWlpZKSUlJeUUy/B93ubb5UT/zCcGvai744ecL8PrnS6TWPD9SFsEtWxfbOM2b/hcULt/O5Jf+Bx78onaaksnPFE3/i6pkwy84o7E/KODjQ1F7UhBAAAEEEEAAAQQQcEqAQYFTp5vGIoAAAggggAACCCAQFWBQEDUhBQEEEEAAAQQQQAABpwQYFDh1umksAggggAACCCCAAAJRAQYFURNSEEAAAQQQQAABBBBwSoBBgVOnm8YigAACCCCAAAIIIBAVYFAQNSEFAQQQQAABBBBAAAGnBIr97z41tdqfbMx0LJgWd5zmrRM/VFQ3jYm7XNv8qJ8KRBf8oiaaYutiG6d58vxQhfCCX9jD37N1sY3TfOl/vm5qjV/KIrhl62Ibp3nnWv9Lf6+Sa/ULno9c9KN+6QLR/Ww8P4pqRScm5kpB1J4UBBBAAAEEEEAAAQScEiiubLZi1bCJiTuudu3aNVKubTuon0qZF5v+gp/ZTlPxM9vYuOBntrN1sY3j+Vs1Z/wKyy/9tYnzW1jnN701hXJ+gzMa+23kSoEvwRoBBBBAAAEEEEAAAUcFGBQ4euJpNgIIIIAAAggggAACvgCDAl+CNQIIIIAAAggggAACjgowKHD0xNNsBBBAAAEEENgwgalTp0rbtm29B+ta91kQyHcBBgX5fgapPwIIIIAAAghUm4AOACZPnix33XWXlJWVeWvdZ2BQbaeAgrIkwKAgS7BkiwACCCCAAAKFJzBx4kSZMmWKdO3a1WucrnVf01kQyGcBBgX5fPaoOwIIIIAAAghUq8CcOXOSAwK/YB0YaDoLAvkswIzGgbOXjRnjAtln3LQt1zZOC2JGxSg3flETTbF1sY3TPOl/qhBe8At7+Hu2LrZxmi/9z9dNrfFLWQS3bF2CcW3atJHZs2eHBga6r+k6uzH9Lyhcvh30ix4Np+AX9tC9bPgxo3HUmRQEEEAAAQQQQMBaYPDgwXLOOed4AwN9kA4IdF/TWRDIZwFmNDacvfTZCQ0hUigz2mnbbNobdxx+pl5VnmZzPvDDzxew6S8aG2cc/c/Xj65tnPGLuvkp+eCnAwA9hwMHDvQ+MqRXCIYOHSoDBgzwmsH59c9mdJ0P5zda63BKoZxf04zGxeGmsocAAggggAACCCBQkYAOALp16yatW7eWGTNmSKtWrSoK5xgCeSHAjcZ5cZqoJAIIIICS/JoKAAAnn0lEQVQAAgjkkoB+Jaku/jqX6kZdENgQAQYFG6LGYxBAAAEEEEDAWYHS0lKZMGGC135d6z4LAvkuwKAg388g9UcAAQQQQACBahXQgcCwYcO8MnXtDxCqtRIUhkDMAgwKYgYlOwQQQAABBBAoXAH/KkH6oICrBYV7zl1pGYMCV8407UQAAQQQQACBKgv4VwlKSkq8vHTN1YIqs5JBDgjw7UM5cBKoAgIIIIAAAgjkvoB/lWDhwoWhyuqgoEWLFsmPFIUOsoNAnggwo3HgRGVjxrhA9hk3bcu1jdOCmBEwyo1f1ERTbF1s4zRP+p8qhBf8wh7+nq2LbZzmS//zdVNr/FIWwS1bFz9u/PjxMmTIEGncuLE3e7HmpbMY676m63Gds0DTKlr8/CqK0WNxx2mePD9UIbzYOuujCsXPNKMxVwrC/YI9BBBAAAEEENhAgSufHriBj8z9h635fa28W/qZ7N5jF/Hbud9xHZLbq9uslE9enisT31gqdTbZKPcbtIE1HHN0+VexbuDDeVgOCzCjseHkMOOeASWRZOOij7SJK5QZAW3bG3ccfipqXuh/G+6ij8QPv6q+vlxxVPlXdZol8zz1+LT6H5W2f1rafoHtjp01zPgaYfO6oRQ2cVXtfyZym3Jdq59pRmNuNDb1HtIQQAABBBBAAAEEEHBIgEGBQyebpiKAAAIIIIAAAgggYBJgUGBSIQ0BBBBAAAEEEEAAAYcEGBQ4dLJpKgIIIIAAAggggAACJgEGBSYV0hBAAAEEEEAAAQQQcEiAQYFDJ5umIoAAAggggAACCCBgEmBQYFIhDQEEEEAAAQQQQAABhwQYFDh0smkqAggggAACCCCAAAImgeLS0lJTupemUznrohNJVLSY4oqKiqSsrCz5MN33p5H280uPSQYnNlasWCEV1U1jTeUG8/C3TXHpZVM/Xyu6xi9qoikmF1OkKY7+h196Hwj2HV7/+P1het0I9hF/2xSX3rdq8vebX0/WhSMQfG+W6/2P+pn7nbo0btI0crC4pKQkkugnrF271tusbCa4uOO0UO10FdVNY+Iu1zY/6qcC0QW/qImm2LrYxmmePD9UIbzgF/bw92xdbOM0X/qfr5ta45eyYKuwBYLvzWz7vW2cyvH6Eu0/2fBjRuOoMykIIIAAAggggAACCDgvwD0FzncBABBAAAEEEEAAAQRcF2BQ4HoPoP0IIIAAAggggAACzgswKHC+CwCAAAIIIIAAAggg4LoAgwLXewDtRwABBBBAAAEEEHBegEGB810AAAQQQAABBBBAAAHXBRgUuN4DaD8CCCCAAAIIIICA8wLF/nefmiT8ycZMx4Jpccdp3jqxQkV105i4y7XNj/qpQHTBL2qiKbYutnGaJ88PVQgv+IU9/D1bF9s4zZf+5+um1vilLNgqbIHgezPbfm8bp3K8vkT7Tzb8impFJybmSkHUnhQEEEAAAQQQQAABBJwSKK5stmLVsImJO6527do1Uq5tO6ifSpkXm/6Cn9lOU/Ez29i44Ge2s3WxjeP5WzVnF/0yi3Ek3wRMr8WmNFO7bOJcfH7YuKinTZytHzMam3ooaQgggAACCCCAAAIIOC7Ax4cc7wA0HwEEEEAAAQQQQAABBgX0AQQQQAABBBBAAAEEHBdgUOB4B6D5CCCAAAIIuCCwZs0amfvlv+Xn5T+70FzaiMB6CzAoWG8yHoAAAggggAAC+SLwn9/+I2edOlAa1Wsqe+2+j2zXdAdp37qTvPmPt7LShO++/U5mPvW0l/frr74hO7VolZVyyBSBuAUYFMQtSn4IIIAAAgggkBMCZWVl0vvIPt4VgnsfvFsW/bRQvl08T4459mj508GHyQfvfRh7PT/912cy8orRXr4dOraXR556OPYyyBCBbAgwKMiGKnkigAACCCCAQI0LvPHa3+Stf74t0x6+R47t21s23WxT2aLBFjJqzNWyb5d95NZbbpOV/1kpB+3XXRYt+sGrr15Z0P0fl/7o7b//7gfy5+6He3/xP/uMc+WnZT956foxpEuHXe6l79Ohs/z1uedlwfwFctlFI2T+vPlycr9TZd438+SWmyd78Top103Xj5c2O+zqPWbEJVfI77+vklWrVnvlPXDfQ6L56FWM++990HsM/yFQnQLMaBzQzsaMcYHsM27almsbpwUxI2CUG7+oiabYutjGaZ70P1UIL/iFPfw9WxfbOM2X/ufrptY15ZeqQc1sffzRJ7J9y+1lhx13CFWgqKhIev7pEHn8kSe810C9YrBm9WovRq10f21ivWTJUjm4aw85+7yBcuWoK7w3+Cf2PVn++spz8sC0h+Tfc/8tT856TF5+8RXp1/sEWbD4Gzn1jJPl9sl3yMWXDpPliYGDDkp0eWjawzIpMUDQAUnbdm29jzRtutlmctHwoV55v/7yq9w0aZzMeHKGDD73Qjn+hL6y8cZ1vcfm0n/MaPyHBA1M58b2+RZ3nNbF9vWPGY1NZ440BBBAAAEEEChIgZ9+XCZbNdzS2Lb6W9SXX39dYTzmJz752JPSvKS53Djhetlv/y4ydtwY+efsN2Xx4iXeVYEfE/nXqVtXLkoMAJ5/9X+lbp260qZdG9ls882kfeKjQ8Fl2r33y7mDzpEB55zl5XXZlZfKww9MT4ZMum2CHNzjILn+puu8tG8XfJs8xgYC1SHAjMYG5ThnjNPsbfKLO852Rru4y7XNj/qplHmx6S/4me00FT+zjY0LfmY7WxfbOBefv5lls3ukeYvm3l/h9aM+DbZsECps/jfzE1cRtgul6U7wr7fzvp4v35d+Lw02bhiKW5YYDOhf+E8/6Uzp3Gk/72rE+ReeK5332zcUF9zRbz66+LKLkknbt9zWy9tPKGlR4m1uXm9zb+1fufCP58ra9FpiSjPV1ybOxeeHjYt62sTZ+jGjsamHkoYAAggggAACBSmwe/vdvXbpvQX+cuPYcfLRBx/JtHsfkF59jvGTvY9d6E7pwtJkmt5/0GnPjvLD8lLv57sl8+WF1/4qO+28o/z88y8y49mn5LOvPpHzBp8jlwy5VL78Ym7ysekbHTp1CA0Cvpr7tXQ/5OBkmL6ZY0GgJgVq1WThlI0AAggggAACCGRLQP9yrzcUX3bxCO9jP3pTr35l6AGdD5ZNNt5ETj7tZKlXv57oX+ef/sss76bjqXfcnaxOl66dvSsNH7yf+JaixH0IU269Q07qe4rUqlVLxowcKxPH3yJNmjaRvv2O8x6zetUq75jerBy84qAHjzjqMJn+4CPeTcg6Z8KTjz8lPQ7tniyLDQRqWoBBQU2fAcpHAAEEEEAAgawJPPrUdNljz07eNwg12aKZPJi44Vf/0r906VJ57OHHEu/1i2Tw0EEy6sprpNlWLWTNmrXJuuhn/AddeJ4c1uMIadqguUydco/c+9BUKS4ulnMvOFvGXXeTbN9sR9l1l/Zyyuknye4ddvd+NAP9JqHg0vu43rJ69Rrv24V0zoRViQHEcf36BENC21ovFgSqU6C4OgujLAQQQAABBBBAoDoFttxqS3no8QfktxW/yTdff+N9Jel222/nfYTom6/neVW59Irh3k3AuqM3IN9575RkFfXm4qGXDPG+iUi/xcj/RqD9D9hfFi5dIHpDcMsdWnpfd6oPatasqXwx/zNZlfi6Ub0C8dXCL728mjRpLH9/+3XvBuU6deqI3kPgv/H/ZXX515z6habv++msEcimAIOCbOqSNwIIIIAAAgjkhIC+Qde/5PuLfsZff/xFBwOZlq0bbS36k77oR4/a7dYuPdm7kuDfMBw8qPcNpH89avA42wjUpAAfH6pJfcpGAAEEEEAAAQQQQCAHBBgU5MBJoAoIIIAAAggggAACCNSkADMaB/TTvykgcCiyaTtjXOSBhgTbcm3jtAjqF4XGL2qiKbYutnGaJ/1PFcILfmEPf8/WxTZO86X/+bqpdU35pWrAVqEIBGfzte1XtnFqxPM32lOy4ceMxlFnUhBAAAEEEEAAAQQQcF6AGY0NXSDOGeM0e5v84o6zndEu7nJt86N+KmVebPoLfmY7TcXPbGPjgp/ZztbFNs7F529mWY7km4DptcSUZmqXTZyLzw8bF/W0ibP1Y0ZjUw8lDQEEEEAAAQQQQAABxwW40djxDkDzEUAAAQQQQAABBBBgUEAfQAABBBBAAAEEEEDAcQEGBY53AJqPAAIIIIAAAggggACDAvoAAggggAACCCCAAAKOCzAocLwD0HwEEEAAAQQQQAABBBgU0AcQQAABBBBAAAEEEHBcgEGB4x2A5iOAAAIIIIAAAgggUFxaWppRQaea1kUnQqhoMcUVFRVJWVlZ8mG670/T7OeXHpMMTmysWLFCKqqbxprKDebhb5vi0sumfr5WdI1f1ERTTC6mSFMc/Q+/9D4Q7Du8/vH7w/S6Eewj/rYpLr1v1eTvN7+erAtHIPjeLNf7H/Uz9zt1adykaeRgcUlJSSTRT1i7dq23WdkManHHaaHa6Sqqm8bEXa5tftRPBaILflETTbF1sY3TPHl+qEJ4wS/s4e/ZutjGab70P183tcYvZcFWYQsE35vZ9nvbOJXj9SXaf7Lhx4zGUWdSEEAAAQQQQAABBBBwXoB7CpzvAgAggAACCCCAAAIIuC7AoMD1HkD7EUAAAQQQQAABBJwXYFDgfBcAAAEEEEAAAQQQQMB1AQYFrvcA2o8AAggggAACCCDgvACDAue7AAAIIIAAAggggAACrgswKHC9B9B+BBBAAAEEEEAAAecFiv3vPjVJ+JONmY4F0+KO07x1YoWK6qYxcZdrmx/1U4Hogl/URFNsXWzjNE+eH6oQXvALe/h7ti62cZov/c/XTa3xS1mwVdgCwfdmtv3eNk7leH2J9p9s+BXVik5MXBwtmhQEEEAAAQQQQGDDBMbOGrZhD+RRCCBQowLFlc1WrLWziYk7rnbt2jVSrm07qJ9KmReb/oKf2U5T8TPb2LjgZ7azdbGN4/lbNedC9ruxz30hHP+vypU9f23jNPNcmvG2qKhIysrKQm3OpfqFKrZuJ876+flXdn7XJ66Qnx++Q/q6JvyY0Tj9LLCPAAIIIIAAAggggAACwo3GdAIEEEAAAQQQQAABBBwXYFDgeAeg+QgggAACCCBgJzB69GjRjwz5P/oof1vXepwFgXwVYFCQr2eOeiOAAAIIIIBAtQqMHDnSu4dA7yPw7yXwt3Wtx1kQyFcBBgX5euaoNwIIIIAAAggggAACMQkwKIgJkmwQQAABBBBAAAEEEMhXAQYF+XrmqDcCCCCAAAIIVKsA9xRUKzeFVbMAMxoHwLMxY1wg+4ybtuXaxmlBzAgY5cYvaqIpti62cZon/U8Vwgt+YQ9/z9bFNk7zpf/5uqk1fimL4Jatix83YsQI0R9/qVOnjqxZs8bf9daLFi0Sf96F0IHAjp9fIMm4GXecFsLzI0pt61xIfqYZjblSEO0bpCCAAAIIIIAAAggg4JQAMxobTrfNzHLMuGeAW5eEn9nGxkUfaRNH/zMb41c1F/zwUwFeX9avH6S/ZuO3fn7p0fili6T20/ta6khqy9aPGY1TZmwhgAACCCCAAAIIIIDAOgE+PkRXQAABBBBAAAEEEEDAcQEGBY53AJqPAAIIIIAAAggggACDAvoAAggggAACCCCAAAKOCzAocLwD0HwEEEAAAQQQQAABBBgU0AcQQAABBBBAAAEEEHBcgEGB4x2A5iOAAAIIIIAAAgggwIzGgT7g4ox2geZn3LR1sY3TgphRMcqNX9REU2xdbOM0T/qfKoQX/MIe/p6ti22c5kv/83VT63z2S5+9mPObOq/+Vj6fX78N/rpQzi8zGvtnlDUCCCCAAAIIIIAAAggkBZjROEmR2ohzxjjN1Sa/uONsZ7SLu1zb/KifSpkXm/6Cn9lOU/Ez29i44Ge2s3WxjeP5WzXnXPNLf27lWv3StalfukhqP/1cpo6ktgrFjxmNU+eULQQQQAABBBBAAAEEEFgnwI3GdAUEEEAAAQQQQAABBBwXYFDgeAeg+QgggAACCCCAAAIIMCigDyCAAAIIIIAAAggg4LgAgwLHOwDNRwABBBBAAAEEEECAQQF9AAEEEEAAAQQQQAABxwUYFDjeAWg+AggggAACCCCAAAIMCugDCCCAAAIIIIAAAgg4LlC0cOHCskwGOpWzLjpRQ0WLKa6oqEjKylJZ674/zbWfX3pMsIwVK1ZIvXr1gkmRbVO5kaBEgikuvWzqZ5IrT8PPbGNyMUWa4uh/5uclfuUCvP7x+8P0usHzI/eeHy1atJDE+6jQqeH5y/M3H56/jZs0TfbbRYsWedtFiTfuqXfuycPlG2vXrvU2KpvhLe44LbS0tFRKSkrKK5Lh/7jLtc2P+plPCH5Vc8EPP1+A1z9fIrXm+ZGyCG7ZutjGad70v6Bw+XYmv/Q/8OAXtdOUTH6maPpfVCUbfsEZjf1BAR8fitqTggACCCCAAAIIIICAUwIMCpw63TQWAQQQQAABBBBAAIGoAIOCqAkpCCCAAAIIIIAAAgg4JcCgwKnTTWMRQAABBBBAoKoCU6dOlbZt23rZ6Fr3WRDIdwEGBfl+Bqk/AggggAACCFSbgA4AJk+eLHfddZf3LYu61n0GBtV2CigoSwIMCrIES7YIIIAAAgggUHgCEydOlClTpkjXrl29xula9zWdBYF8FmBQkM9nj7ojgAACCCCAQLUKzJkzJzkg8AvWgYGmsyCQzwLF/nefmhrhTzZmOhZMiztO89aJHyqqm8bEXa5tftRPBaILflETTbF1sY3TPHl+qEJ4wS/s4e/ZutjGab70P183tcYvZRHcsnWxjdO8a7r/tWnTRmbPnh0aGOi+puv7lpquX9DftE39oir51P+itQ+n2J7folrRiYm5UhC2ZA8BBBBAAAEEEMgoMHjwYDnnnHO8gYEG6YBA9zWdBYF8FiiubLZibZxNTNxxtWvXrpFybdtB/VTKvNj0F/zMdpqKn9nGxgU/s52ti20cz9+qOeOX3346ANBzOHDgQO8jQ3qFYOjQoTJgwACvYZzf/D6/mWtffqRQzm9wRmO/zcX+BmsEEEAAAQQQQACBygV0ANCtWzdp3bq1zJgxQ1q1alX5g4hAIMcF+PhQjp8gqocAAggggAACuSegX0Wqi7/OvRpSIwTWT4BBwfp5EY0AAggggAACjguUlpbKhAkTPAVd6z4LAvkuwKAg388g9UcAAQQQQACBahXQgcCwYcO8MnXtDxCqtRIUhkDMAgwKYgYlOwQQQAABBBAoXAH/KkH6oICrBYV7zl1pGYMCV8407UQAAQQQQACBKgv4VwlKSkq8vHTN1YIqs5JBDgjw7UM5cBKoAgIIIIAAAgjkvoB/lWDhwoWhyuqgoEWLFsmPFIUOsoNAnggwo3HgRLk4o12g+Rk3bV1s47Qg2xn3MlYqcMC2XNs46hfADWziF8AIbNq62MZp1jw/AsDrNvGLmmiKrYttnOZJ/1OF8OL7jR8/XoYMGSKNGzf2Zi/WKJ3FWPc1XY/rnAWaVtHi51dRjB6LO07z5PyqQnixddZHFYpfcEbjoqIiKSsrE64UhPsFewgggAACCCCwgQJXPj1wAx+Z+w9b8/taebf0M9m9xy7it3O/4zokt1e3WSmfvDxXJr6xVOpsslHuN2gDazjm6PKvYt3Ah/OwHBSoW7eOrFq1WpjR2HBybGZOLZQZ7bT5Nu2NOw4/Q8dbl2RzPvDDzxew6S8aG2cc/c/Xj65tnAvd75o+t0dhCiXl5LSG9EnbL9wxkdfQq588z/haYtPvNQObuEJ/fqT1GG/XxiVuv+CMxptvXk9Wr14j3GhsOjukIYAAAggggAACCCDggIAOSho2bMigwIFzTRMRQAABBBBAAAEEEMgooAMDrhRk5OEAAggggAACCCCAAAJuCDAocOM800oEEEAAAQQQQAABBDIKMCjISMMBBBBAAAEEEEAAAQTcEGBQ4MZ5ppUIIIAAAggggAACCGQUYFCQkYYDCCCAAAIIIIAAAgi4IcCMxoHz7OKMdoHmZ9y0dbGN04IKZUbAjGiBA7YutnH4BXADm/gFMAKbti62cZo1z98A8LpN/KImpBSmQHC2Ztt+bxunYry+RPtNNvyCMxr7JXKlwJdgjQACCCCAAAIIIICAowLMaGw48TYzyzHjngFuXRJ+ZhsbF32kTRz9z2yMX9Vc8MNPBbLx+pJZliP5JmD6HWVKM7XLJi4b/c+mXK2vTVyh1C84o7F/rrhS4EuwRgABBBBAAAEEEEDAUQEGBY6eeJqNAAIIIIAAAggggIAvwKDAl2CNAAIIIIAAAggggICjAgwKHD3xNBsBBBBAAAEEEEAAAV+AQYEvwRoBBBBAAAEEEEAAAUcFGBQ4euJpNgIIIIAAAggggAACvgCDAl+CNQIIIIAAAggggAACjgowKHD0xNNsBBBAAAEEEEAAAQR8geLS0lJ/O7LWqaZ10YkaKlpMcUVFRVJWVpZ8mO770zT7+aXHJIMTGytWrJCK6qaxpnKDefjbprj0sqmfrxVd4xc10RSTiynSFEf/wy+9DwT7Dq9//P4wvW4E+4i/bYpL71s1+fvNryfrwhEIvjfL9f5H/cz9Tl0aN2kaOVhcUlISSfQT1q5d621WNsNb3HFaqHa6iuqmMXGXa5sf9VOB6IJf1ERTbF1s4zRPnh+qEF7wC3v4e7YutnGaL/3P102t8UtZsFXYAsH3Zrb93jZO5Xh9ifafbPgxo3HUmRQEEEAAAQQQQAABBJwX4J4C57sAAAgggAACCCCAAAKuCzAocL0H0H4EEEAAAQQQQAAB5wUYFDjfBQBAAAEEEEAAAQQQcF2AQYHrPYD2I4AAAggg4KDAXu33lkb1m8jq1asdbD1NRiAqwKAgakIKAggggAACCBSwwL8++VT0R7/+95WXXi3gltI0BOwFGBTYWxGJAAIIIIAAAgUg8Nj0x6Rvv+PkpFNPkkcffjTZonffeU9OOv5kGXvNdbLjNjtL5z26yDtvveMdX778Z7nowotlmybbScd2e8hzz/yvLP5hsXTde3/5dsG3XsylF10m5w0839vWKxDdOh8o8+fN9+I0X33s4T2PlI8+/NiL0XX/PifIhJsmil65YEGgJgWK/e8+NVXCn2zMdCyYFnec5q0TK1RUN42Ju1zb/KifCkQX/KImmmLrYhunefL8UIXwgl/Yw9+zdbGN03zpf75uao1fyiLXt/Rc3X/fA3LH3VOkVq1a0uuI3nLrnf8j9evXlxW//ipPPv6UHN3rKJl6351y7aixcvnwK+SVv70k0+6ZJnO/nCtP/+9MefH5F+XYo/rIL6uWy6JFP8hbb74t22y7jdw79T7v6sOkWyfKh+9/KHM+myMttmkhB3Y5SLZo0EDuf/g+ee2V12XfTp3lh+WL5D+//SYznpopn/7rMxl2ydBcp/PqF3xvZtvvbeO0AF5fot0gG35FtaITExdHiyYFAQQQQAABBBAoTIG/vf43WfX7KunRs7v897//9Rqpf/Xvf2K/ZIPveeBu2XzzzRN/1PlDTux7kpeuf/H/cemPUrduXbl0xHDpdsD+3hvYw474s7z1z7ek0x4dZeNNNvZ+Pv7oE/nH7H/KkcccKZ98/C9579335ct5c2S77beTg7ofJNPuvT8xOHhNGjdu5OU987m/yI477Zgsnw0EakKguLLZirVSNjFxx9WuXbtGyrVtB/VTKfNi01/wM9tpKn5mGxsX/Mx2ti62cTx/q+bsol9mseo/8tAD072/5ndo2ylZuH6EyB8UNEq8UdcBgS7169fzYnV7+OWXyEn9TpE9dttTWu7QUgYPvUC6dO0i3Q/pLmNHj5W99t5TDjn0EO/qw9uJKwc6+Oh3wvEy75t5+nBp1bKNt/b/0wGGDgrq1auXVwMC02uxKc1vZ3BtE+fi88PGRR1t4mz9TDMac6Ug2FvZRgABBBBAAIGCFdAbi6c/OF0m/s8EadO2tdfOOZ9/IUMvGCZLFi/x9uvUqWNs/88//yLPvjBLflr2kzzz9LPeYw7qfqB3xaBf4qblZ2c95w0Qiotry9MzZskLf31Rpky9XT7/7HMvv29/mC+b1ysfbGiZ2223rXz5xZfGskhEoCYEuNG4JtQpEwEEEEAAAQSqXeDZxJt5/cv8WWefKQcefKD3c+bAM7y0mX95usL6jLpylNx84wRp2qxp8qrCqlWrZauGW8mee+0hTz3xF9mn8z7e1QP9OFKbtm2keUlz6dipo5fvw4nBSHFxsbzx2t9kv726ypIlSyssj4MIVLcAg4LqFqc8BBBAAAEEEKgRgekPPZL4xqETQx/D0CsDvY/rLY8EvoXIVLlBF54v1117vTRv2EJ22b61nHbmadKhY3sv9E+H/ckbWOjVB703QD+CpPca6NJw64by4KMPyOWXjJD6dRt4NzZfc91oaduujRQVFXkx/IdALgjw8aFcOAvUAQEEEEAAAQSyLvDM87OMZdx5z5Rk+tff/Tu5vW+XfWVV2Upv/4CDDpAlv/wgC+Z/Kzvs2FI222yzZNyVo64Q/fGX7xYv8De99XHH9/EGCfPnLfCuHmy5ZQMvXe9JWPrr4lAsOwjUlACDgpqSp1wEEEAAAQQQyCsB/drS3XbfdYPqrIOIdru23aDH8iAEqkOAjw9VhzJlIIAAAggggAACCCCQwwIMCnL45FA1BBBAAAEEEEAAAQSqQ4AZjQPK2ZgxLpB9xk3bcm3jtCBmBIxy4xc10RRbF9s4zZP+pwrhBb+wh79n62Ibp/nS/3zd1Lqm/FI1YKtQBJjR+A8JGpjOq+3zLe44rYvt659pRmOuFJjOJmkIIIAAAggggAACCDgkwIzGhpMd54xxmr1NfnHH2c5oF3e5tvlRP5UyLzb9BT+znabiZ7axccHPbGfrYhvn4vM3syxH8k3A9FpiSjO1yybOxeeHjYt62sTZ+plmNOZKganXkoYAAggggAACCCCAgEMCDAocOtk0FQEEEEAAAQQQQAABkwCDApMKaQgggAACCCCAAAIIOCTAoMChk01TEUAAAQQQQAABBBAwCTAoMKmQhgACCCCAAAIIIICAQwIMChw62TQVAQQQQAABBBBAAAGTAIMCkwppCCCAAAIIIIAAAgg4JMCMxoGTbTuznD7Edsa4QPYZN23LtY2jfmZq/Krmgh9+vgCvf75Eas3zI2XBVmELBGfzte33tnEqx+tLtP9kw48ZjaPOpCCAAAIIIIAAAggg4LwAMxobukCcM8Zp9jb5xR1nO6Nd3OXa5kf9VMq82PQX/Mx2moqf2cbGBT+zna2LbZyLz9/MshzJNwHTa4kpzdQumzgXnx82LuppE2frx4zGph5KGgIIIIAAAggggAACjgtwo7HjHYDmI4AAAggggAACCCDAoIA+gAACCCCAAAIIIICA4wIMChzvADQfAQQQQAABBBBAAAEGBfQBBBBAAAEEEEAAAQQcF2BQ4HgHoPkIIIAAAggggAACCDAooA8ggAACCCCAAAIIIOC4AIMCxzsAzUcAAQQQQAABBBBAoGjhwoVlmRh0qmlddCKEihZTXFFRkZSVpbLWfX+aZj+/9JhgGStWrJB69eoFkyLbpnIjQYkEU1x62dTPJFeehp/ZxuRiijTF0f/Mz0v8ygV4/eP3h+l1Ix+eH5PfvNJUTdIKSGBw5zHJ1pj6Kb/f8uP3W+MmTZPn0d8oSrxxT71z91PXrdeuXettVTaDWtxxWmhpaamUlJSsq4l5FXe5tvlRv6qdD/zwUwHb51vccfQ/+h/9z9wH/FR+//oSqbXt65A+Ar+Um7+Fny8RXtu62MZp7rb9jxmNw+eCPQQQQAABBBBAAAEEEEgIcE8B3QABBBBAAAEEEEAAAccFGBQ43gFoPgIIIIAAAggggAACDAroAwgggAACCCCAAAIIOC7AoMDxDkDzEUAAAQQQQAABBBBgUEAfQAABBBBAAAEEEEDAcQEGBY53AJqPAAIIIIAAAggggECx/92nJgp/sjHTsWBa3HGat06IUVHdNCbucm3zo34qEF3wi5poiq2LbZzmyfNDFcILfmEPf8/WxTZO86X/+bqpNX4pi+CWrYttnOZN/wsKl2/jFzXRFFsX2zjNs1D6X1Gt6MTEXCnQM8yCAAIIIIAAAggggIDDAsWVzVasNjYxccfVrl27Rsq1bQf1UynzYtNf8DPbaSp+ZhsbF/zMdrYutnE8f6vmjB9+vkCcr2s8f33V6DpO50J5/jKjcbSfkIIAAggggAACCCCAgPMCfHzI+S4AAAIIIIAAAggggIDrAgwKXO8BtB8BBBBAAAEEEEDAeQEGBc53AQAQQAABBBBAAAEEXBdgUOB6D6D9CCCAAAIIIIAAAs4LMChwvgsAgAACCCCAAAIIIOC6AIMC13sA7UcAAQQQQAABBBBwXoAZjQNdwMUZ7QLNz7hp62IbpwUVyoyAGdECB2xdbOPwC+AGNvELYAQ2bV1s4zRrnr8B4HWb+EVNNMXWxTZO86T/qUJ4wS/s4e/ZutjGab6F0v+Y0djvJawRQAABBBBAAAEEEEAgKcCMxkmK1IbNzHeFMqOdttqmvXHH4Zfqb+lbNucDv3S11D5+KYvglo2LxtvE0f+CsuFt/MIe/p6Ni8baxNH/fNXoGr+oiabYuNjGFUr/Y0Zjc18hFQEEEEAAAQQQQAABpwW40djp00/jEUAAAQQQQAABBBAQYVBAL0AAAQQQQAABBBBAwHEBBgWOdwCajwACCCCAAAIIIIAAgwL6AAIIIIAAAggggAACjgswKHC8A9B8BBBAAAEEEEAAAQQYFNAHEEAAAQQQQAABBBBwXIAZjQMdwMUZ7QLNz7hp62IbpwUVyoyAGdECB2xdbOPwC+AGNvELYAQ2bV1s4zTr/2/vDpYShoEAgNIP4KrO8P9/Bl/AkQO6YEzSRl1n8EIelyZxTdvXTUvHcdb6bYA/m/y2JjGSdcnGxZzyLxT6D7/eo/SyLtm4mPdZ8k9F45IltgQIECBAgAABAgQIfAmoaPxFURuZynfPUtEuzjpzvo+O41fzbd3KXA9+a7Xa51ct2lbGJeIzcfKvle3b/HqP0su4RGwmTv4V1e2W39YkRjIu2bhnyT8Vjce5YpQAAQIECBAgQIDA1AL+0Xjqy+/kCRAgQIAAAQIECKhoLAcIECBAgAABAgQITC/gLwXTpwAAAgQIECBAgACB2QW8FMyeAc6fAAECBAgQIEBgegEvBdOnAAACBAgQIECAAIHZBbwUzJ4Bzp8AAQIECBAgQGB6AS8F06cAAAIECBAgQIAAgdkFluPxeP0OIUo5xycKNfz0GcUty7K7XuvU0S9lpMt865h2H+fzebff79uhTXu0303Qx8Aobr1vxzeSu4/xG9uMXEaRozj5N16X/O4C7n+eH6P7hvVhfYSA54fnxzoH2ntD9vnx8vrW/tqtvXx8ca/f3Fc/vlwut5HfKsE9Oi52ejqddofDYXVEfffR+83O5/j661B6/IpEv826ZONiduujN44ev63JX1z48SsC7i9Fom6tj2rRtrIu2biYW/61wvf2f/iNKhq/A6BkerZMVCkuAAAAAElFTkSuQmCC;" parent="1" vertex="1">
          <mxGeometry width="824.75" height="510" as="geometry" />
        </mxCell>
      </root>
    </mxGraphModel>
  </diagram>
</mxfile>
